<?xml version="1.0" encoding="utf-8"?>
<!-- Generator: Adobe Illustrator 16.0.0, SVG Export Plug-In . SVG Version: 6.00 Build 0)  -->
<!DOCTYPE svg PUBLIC "-//W3C//DTD SVG 1.1//EN" "http://www.w3.org/Graphics/SVG/1.1/DTD/svg11.dtd">
<svg version="1.1" id="Line" xmlns="http://www.w3.org/2000/svg" xmlns:xlink="http://www.w3.org/1999/xlink" x="0px" y="0px"
	 width="367.865px" height="327px" viewBox="0 0 367.865 327" enable-background="new 0 0 367.865 327" xml:space="preserve">
<path fill="#EE5253" d="M147.269,57.889l8.761-14.248V15.227L141.08,0h-30.713L95.035,15.452L80.563,0H49.851L34.521,15.452
	l-0.093,27.175l7.783,15.262H0V327h367.865V57.889H147.269z M14,71.889h35.351l23.951,46.968h36.479l28.879-46.968h42.091v28.984
	h-32.539v37.771h32.539v35.371h-32.539v37.771h32.539v34.457h-32.539v37.771h32.89V313H14V71.889z M162.213,124.645v-9.771h50.911
	v9.771H162.213z M162.213,197.787v-9.771h50.911v9.771H162.213z M162.213,270.016v-9.771h50.911v9.771H162.213z M353.865,313H193.2
	v-28.984h33.924v-37.771h-33.573v-34.457h33.573v-37.771h-33.573v-35.371h33.573v-37.771h-33.573V71.889h160.314V313z"/>
<rect x="256.81" y="100.872" fill="#EE5253" width="50.675" height="14"/>
<rect x="256.81" y="136.543" fill="#EE5253" width="69.182" height="14"/>
<rect x="256.81" y="171.285" fill="#EE5253" width="69.182" height="14"/>
</svg>
