<?xml version="1.0" encoding="utf-8"?>
<!-- Generator: Adobe Illustrator 16.0.0, SVG Export Plug-In . SVG Version: 6.00 Build 0)  -->
<!DOCTYPE svg PUBLIC "-//W3C//DTD SVG 1.1//EN" "http://www.w3.org/Graphics/SVG/1.1/DTD/svg11.dtd">
<svg version="1.1" id="Line" xmlns="http://www.w3.org/2000/svg" xmlns:xlink="http://www.w3.org/1999/xlink" x="0px" y="0px"
	 width="341.676px" height="336.644px" viewBox="0 0 341.676 336.644" enable-background="new 0 0 341.676 336.644"
	 xml:space="preserve">
<path fill="#EE5253" d="M341.676,198.423l-25.934-95.377v-32.88h-28.066l7.837-7.939V21.552L273.961,0h-41.062l-21.553,21.552
	v41.062l7.553,7.553h-27.781v32.841l-20.205,71.117l-19.17-70.504V70.166h-28.578l7.837-7.939V21.552L109.449,0H68.387
	L46.834,21.552v41.062l7.553,7.553h-27.27v32.731L0,198.347l13.467,3.826l13.65-48.049v79.952h11.315v102.567h43.535V234.077h14.923
	v102.567h43.535V234.077h11.316V156.98l18.875,69.416l20.5-72.16v79.841h11.315v102.567h43.535V234.077h14.923v102.567h43.535
	V234.077h11.316v-77.672l12.424,45.692L341.676,198.423z M225.346,27.351L238.697,14h29.465l13.351,13.351v29.13l-13.377,13.553
	h-29.454l-13.336-13.234V27.351z M60.834,27.351L74.186,14h29.465l13.351,13.351v29.13l-13.377,13.553H74.17L60.834,56.799V27.351z
	 M67.968,322.644H52.433v-88.567h15.535V322.644z M41.117,220.077V84.166h96.625v135.911H41.117z M126.426,322.644h-15.535v-88.567
	h15.535V322.644z M231.968,322.644h-15.535v-88.567h15.535V322.644z M205.117,220.077V84.166h96.625v135.911H205.117z
	 M290.426,322.644h-15.535v-88.567h15.535V322.644z"/>
</svg>
