<?xml version="1.0" encoding="utf-8"?>
<!-- Generator: Adobe Illustrator 16.0.0, SVG Export Plug-In . SVG Version: 6.00 Build 0)  -->
<!DOCTYPE svg PUBLIC "-//W3C//DTD SVG 1.1//EN" "http://www.w3.org/Graphics/SVG/1.1/DTD/svg11.dtd">
<svg version="1.1" id="Line" xmlns="http://www.w3.org/2000/svg" xmlns:xlink="http://www.w3.org/1999/xlink" x="0px" y="0px"
	 width="401.169px" height="186.631px" viewBox="0 0 401.169 186.631" enable-background="new 0 0 401.169 186.631"
	 xml:space="preserve">
<path fill="#EE5253" d="M367.708,59.461l-0.021-12.876L321.3,0h-83.968l-34.233,34.399h-10.233L158.652,0h-83.97L28.24,46.587
	v12.874H0l65.771,127.17h257.134l78.264-127.17H367.708z M42.24,52.373L80.494,14h72.337l34.214,34.399h21.873L243.15,14h72.333
	l38.213,38.375l0.012,7.085H42.24V52.373z M319.127,73.461l-30.95,51.074H103.615L77.868,73.461H319.127z M315.083,172.631H74.292
	l-51.29-99.17H62.19l32.804,65.074h201.07l39.434-65.074h40.617L315.083,172.631z"/>
</svg>
