<?xml version="1.0" encoding="utf-8"?>
<!-- Generator: Adobe Illustrator 16.0.0, SVG Export Plug-In . SVG Version: 6.00 Build 0)  -->
<!DOCTYPE svg PUBLIC "-//W3C//DTD SVG 1.1//EN" "http://www.w3.org/Graphics/SVG/1.1/DTD/svg11.dtd">
<svg version="1.1" id="Line" xmlns="http://www.w3.org/2000/svg" xmlns:xlink="http://www.w3.org/1999/xlink" x="0px" y="0px"
	 width="337.735px" height="337.735px" viewBox="0 0 337.735 337.735" enable-background="new 0 0 337.735 337.735"
	 xml:space="preserve">
<path fill="#EE5253" d="M267.972,168.838l69.689-69.732V33.633L304.03,0h-65.472l-69.721,69.762L99.105,0.072H33.633L0,33.704
	v65.473l69.762,69.721L0.073,238.63v65.471l33.632,33.635h65.473l69.72-69.762l69.732,69.689h65.473l33.633-33.633v-65.473
	L267.972,168.838z M244.359,14h53.872l25.431,25.432v53.877l-65.592,65.633l-79.33-79.283L244.359,14z M93.375,323.735H39.503
	l-25.431-25.434v-53.875l65.592-65.633l79.33,79.283L93.375,323.735z M323.735,298.231l-25.432,25.432h-53.877L14,93.375V39.503
	l25.432-25.431h53.876l230.426,230.286V298.231z"/>
<path fill="#EE5253" d="M160.737,101.27l-59.468,59.467l75.784,75.782l59.467-59.465L160.737,101.27z M121.068,160.736
	l39.669-39.668l55.984,55.985l-39.668,39.666L121.068,160.736z"/>
<rect x="255.326" y="200.069" transform="matrix(-0.7071 0.7071 -0.7071 -0.7071 598.4216 178.0925)" fill="#EE5253" width="14.001" height="25.829"/>
<rect x="230.103" y="225.292" transform="matrix(-0.7071 0.7071 -0.7071 -0.7071 573.199 238.9853)" fill="#EE5253" width="14.001" height="25.829"/>
<rect x="199.621" y="255.774" transform="matrix(-0.7071 -0.7071 0.7071 -0.7071 177.0213 598.8707)" fill="#EE5253" width="25.829" height="14"/>
<rect x="283.44" y="240.01" transform="matrix(0.7071 0.7071 -0.7071 0.7071 261.463 -137.2061)" fill="#EE5253" width="25.829" height="14.001"/>
<rect x="258.217" y="265.233" transform="matrix(-0.7071 -0.7071 0.7071 -0.7071 270.3521 656.4503)" fill="#EE5253" width="25.829" height="14.001"/>
<rect x="233.649" y="289.802" transform="matrix(-0.7071 -0.7071 0.7071 -0.7071 211.0499 681.02)" fill="#EE5253" width="25.829" height="14"/>
<rect x="119.4" y="75.726" transform="matrix(0.7071 0.7071 -0.7071 0.7071 97.1761 -69.1562)" fill="#EE5253" width="25.337" height="14"/>
<rect x="94.177" y="100.949" transform="matrix(-0.7071 -0.7071 0.7071 -0.7071 106.0682 259.8315)" fill="#EE5253" width="25.337" height="14"/>
<rect x="69.61" y="125.516" transform="matrix(-0.7071 -0.7071 0.7071 -0.7071 46.7573 284.3994)" fill="#EE5253" width="25.337" height="14"/>
<rect x="85.546" y="41.873" transform="matrix(0.7071 0.7071 -0.7071 0.7071 63.3232 -55.1336)" fill="#EE5253" width="25.337" height="14"/>
<rect x="60.324" y="67.095" transform="matrix(0.7071 0.7071 -0.7071 0.7071 73.7708 -29.9115)" fill="#EE5253" width="25.337" height="14"/>
<rect x="35.756" y="91.663" transform="matrix(-0.7071 -0.7071 0.7071 -0.7071 12.9031 202.6698)" fill="#EE5253" width="25.337" height="14"/>
</svg>
