<?xml version="1.0" encoding="utf-8"?>
<!-- Generator: Adobe Illustrator 16.0.0, SVG Export Plug-In . SVG Version: 6.00 Build 0)  -->
<!DOCTYPE svg PUBLIC "-//W3C//DTD SVG 1.1//EN" "http://www.w3.org/Graphics/SVG/1.1/DTD/svg11.dtd">
<svg  version="1.1" id="Line" xmlns="http://www.w3.org/2000/svg" xmlns:xlink="http://www.w3.org/1999/xlink" x="0px" y="0px"
	  height="3em" viewBox="0 0 181.384 297.006" enable-background="new 0 0 181.384 297.006"
	 xml:space="preserve">
<path fill="#EE5253" d="M112.869,137.393h-44.31l-1.993-1.979l-0.073,0.073l-21.104-21.104V70.085l23.154-23.153h44.299
	l23.154,23.153v43.878L112.869,137.393z M74.327,123.393h32.69l14.98-15.176V75.884l-14.953-14.952H74.342L59.389,75.884v32.686
	L74.327,123.393z"/>
<path fill="#EE5253" d="M105.301,297.006H76.31L0,127.866l0.078-81.495L46.22,0h90.091l45.074,45.779v82.086L105.301,297.006z
	 M85.353,283.006h10.894l71.137-158.145V51.514L130.448,14H52.039L14.072,52.156l-0.069,72.705L85.353,283.006z"/>
</svg>
