<?xml version="1.0" encoding="utf-8"?>
<!-- Generator: Adobe Illustrator 16.0.0, SVG Export Plug-In . SVG Version: 6.00 Build 0)  -->
<!DOCTYPE svg PUBLIC "-//W3C//DTD SVG 1.1//EN" "http://www.w3.org/Graphics/SVG/1.1/DTD/svg11.dtd">
<svg version="1.1" id="Line" xmlns="http://www.w3.org/2000/svg" xmlns:xlink="http://www.w3.org/1999/xlink" x="0px" y="0px"
	 width="288.057px" height="449.926px" viewBox="0 0 288.057 449.926" enable-background="new 0 0 288.057 449.926"
	 xml:space="preserve">
<path fill="#252B5D" d="M190.616,26l45.798,46.517v83.409l-77.308,171.866h-29.458L52.11,155.927l0.08-82.807L99.074,26H190.616
	 M201.923-1h-11.307H99.074H87.851l-7.917,7.956L33.05,54.075l-7.85,7.889l-0.011,11.129l-0.08,82.807l-0.005,5.822l2.394,5.307
	l77.539,171.865l7.172,15.896h17.439h29.458h17.461l7.163-15.924l77.308-171.866l2.376-5.283v-5.793V72.517V61.456l-7.76-7.882
	L209.857,7.057L201.923-1L201.923-1z"/>
<g>
	<path fill="#252B5D" d="M172.442,179.106h-56.233l-31.478-31.26V91.623l31.434-31.435h56.196l31.437,31.434v55.717L172.442,179.106
		z M127.337,152.106h33.817l15.643-15.848v-33.451l-15.62-15.619h-33.829l-15.618,15.618v33.801L127.337,152.106z"/>
</g>
<g>
	<rect x="0" y="420.963" fill="#252B5D" width="288.057" height="27"/>
</g>
</svg>
