<?xml version="1.0" encoding="utf-8"?>
<!-- Generator: Adobe Illustrator 16.0.0, SVG Export Plug-In . SVG Version: 6.00 Build 0)  -->
<!DOCTYPE svg PUBLIC "-//W3C//DTD SVG 1.1//EN" "http://www.w3.org/Graphics/SVG/1.1/DTD/svg11.dtd">
<svg version="1.1" xmlns="http://www.w3.org/2000/svg" xmlns:xlink="http://www.w3.org/1999/xlink" x="0px" y="0px"
	 height="2em" viewBox="0 0 181.384 297.006" enable-background="new 0 0 181.384 297.006"
	 xml:space="preserve">
<g id="bg">
	<path fill="#FF9999" d="M134.173,4.959H48.304L4.324,49.158L4.25,126.833l72.734,161.214h27.632l72.518-161.215V48.593
		L134.173,4.959z M133.874,113.581l-22.043,22.332H69.596l-1.9-1.886l-0.069,0.07l-20.115-20.114V71.76l22.069-22.068h42.223
		l22.069,22.068V113.581z"/>
</g>
<g id="line">
	<path fill="#252B5D" d="M107.327,292.238h-33.05L0.058,127.732l0.077-80.307L46.562,0.768h89.367l45.397,46.108v80.856
		L107.327,292.238z M79.691,283.855h22.215l71.037-157.923V50.31L132.417,9.15H50.046L8.514,50.889l-0.072,75.044L79.691,283.855z
		 M113.582,140.104H67.869l-0.142-0.141l-0.08,0.082L43.321,115.72V70.023L67.845,45.5h45.695l24.525,24.523v45.277L113.582,140.104
		z M71.323,131.722h38.755l19.604-19.86V73.496l-19.614-19.613H71.317L51.704,73.496v38.751l16.312,16.312L71.323,131.722z"/>
</g>
</svg>
