<?xml version="1.0" encoding="utf-8"?>
<!-- Generator: Adobe Illustrator 16.0.0, SVG Export Plug-In . SVG Version: 6.00 Build 0)  -->
<!DOCTYPE svg PUBLIC "-//W3C//DTD SVG 1.1//EN" "http://www.w3.org/Graphics/SVG/1.1/DTD/svg11.dtd">
<svg version="1.1" id="Line" xmlns="http://www.w3.org/2000/svg" xmlns:xlink="http://www.w3.org/1999/xlink" x="0px" y="0px"
	 width="325.551px" height="326.994px" viewBox="0 0 325.551 326.994" enable-background="new 0 0 325.551 326.994"
	 xml:space="preserve">
<path fill-rule="evenodd" clip-rule="evenodd" fill="#EE5253" d="M321.219,301.619l-83.981-84.356
	c18.228-22.886,29.122-51.909,29.122-83.5C266.359,59.887,206.733,0,133.18,0C59.629,0,0,59.887,0,133.763
	c0,73.878,59.629,133.778,133.18,133.778c31.447,0,60.346-10.947,83.13-29.261l83.98,84.356c2.889,2.904,6.676,4.357,10.464,4.357
	c3.789,0,7.575-1.453,10.465-4.357C326.995,316.836,326.995,307.42,321.219,301.619z M133.18,237.807
	c-57.208,0-103.582-46.578-103.582-104.044c0-57.455,46.373-104.044,103.582-104.044c57.213,0,103.586,46.589,103.586,104.044
	C236.766,191.229,190.393,237.807,133.18,237.807z"/>
</svg>
