<?xml version="1.0" encoding="utf-8"?>
<!-- Generator: Adobe Illustrator 16.0.0, SVG Export Plug-In . SVG Version: 6.00 Build 0)  -->
<!DOCTYPE svg PUBLIC "-//W3C//DTD SVG 1.1//EN" "http://www.w3.org/Graphics/SVG/1.1/DTD/svg11.dtd">
<svg version="1.1" id="Line" xmlns="http://www.w3.org/2000/svg" xmlns:xlink="http://www.w3.org/1999/xlink" x="0px" y="0px"
	 width="323.58px" height="325.54px" viewBox="0 0 323.58 325.54" enable-background="new 0 0 323.58 325.54" xml:space="preserve">
<path fill-rule="evenodd" clip-rule="evenodd" fill="#89879c" d="M190.392,162.77L317.658,34.729c7.896-7.93,7.896-20.823,0-28.77
	c-7.895-7.945-20.706-7.945-28.603,0L161.79,134L34.531,5.959c-7.905-7.945-20.705-7.945-28.61,0c-7.895,7.946-7.895,20.84,0,28.77
	L133.188,162.77L5.921,290.811c-7.895,7.946-7.895,20.825,0,28.77c3.956,3.975,9.133,5.96,14.3,5.96
	c5.177,0,10.354-1.985,14.31-5.96L161.79,191.539L289.056,319.58c3.957,3.975,9.126,5.96,14.293,5.96
	c5.185,0,10.354-1.985,14.309-5.96c7.896-7.944,7.896-20.823,0-28.77L190.392,162.77z"/>
</svg>
